<svg width="200" height="200" viewBox="0 0 200 200" fill="none" xmlns="http://www.w3.org/2000/svg">
  <rect width="200" height="200" fill="#F0F7FF"/>
  <rect x="40" y="40" width="120" height="150" rx="4" fill="white" stroke="#0891b2" stroke-width="2"/>
  <rect x="50" y="60" width="80" height="10" rx="2" fill="#CCE5FF"/>
  <rect x="50" y="80" width="100" height="10" rx="2" fill="#CCE5FF"/>
  <rect x="50" y="100" width="60" height="10" rx="2" fill="#CCE5FF"/>
  <rect x="50" y="120" width="90" height="10" rx="2" fill="#CCE5FF"/>
  <rect x="50" y="140" width="70" height="10" rx="2" fill="#CCE5FF"/>
  <rect x="50" y="160" width="100" height="10" rx="2" fill="#CCE5FF"/>
  <rect x="135" y="50" width="15" height="15" rx="2" fill="#0891b2"/>
  <rect x="140" y="55" width="5" height="5" fill="white"/>
  <path d="M40 40H160V55H40V40Z" fill="#0891b2"/>
  <circle cx="150" cy="130" r="25" fill="#FFAA00" fill-opacity="0.3"/>
  <circle cx="150" cy="130" r="15" fill="#FFAA00"/>
</svg>
