<svg width="200" height="200" viewBox="0 0 200 200" fill="none" xmlns="http://www.w3.org/2000/svg">
  <rect width="200" height="200" rx="100" fill="#E6F2FF"/>
  <path d="M100 60C77.9086 60 60 77.9086 60 100C60 122.091 77.9086 140 100 140C122.091 140 140 122.091 140 100C140 77.9086 122.091 60 100 60Z" fill="#CCE5FF"/>
  <path d="M100 75C89.5075 75 81 83.5075 81 94C81 104.493 89.5075 113 100 113C110.493 113 119 104.493 119 94C119 83.5075 110.493 75 100 75Z" fill="#0891b2"/>
  <path d="M128 132.5C128 122.835 115.464 115 100 115C84.536 115 72 122.835 72 132.5C72 142.165 84.536 150 100 150C115.464 150 128 142.165 128 132.5Z" fill="#0891b2"/>
  <path d="M155 95C155 97.7614 152.761 100 150 100C147.239 100 145 97.7614 145 95C145 92.2386 147.239 90 150 90C152.761 90 155 92.2386 155 95Z" fill="#0891b2"/>
  <path d="M55 95C55 97.7614 52.7614 100 50 100C47.2386 100 45 97.7614 45 95C45 92.2386 47.2386 90 50 90C52.7614 90 55 92.2386 55 95Z" fill="#0891b2"/>
  <path d="M145 55C145 57.7614 142.761 60 140 60C137.239 60 135 57.7614 135 55C135 52.2386 137.239 50 140 50C142.761 50 145 52.2386 145 55Z" fill="#0891b2"/>
  <path d="M65 55C65 57.7614 62.7614 60 60 60C57.2386 60 55 57.7614 55 55C55 52.2386 57.2386 50 60 50C62.7614 50 65 52.2386 65 55Z" fill="#0891b2"/>
  <path d="M145 135C145 137.761 142.761 140 140 140C137.239 140 135 137.761 135 135C135 132.239 137.239 130 140 130C142.761 130 145 132.239 145 135Z" fill="#0891b2"/>
  <path d="M65 135C65 137.761 62.7614 140 60 140C57.2386 140 55 137.761 55 135C55 132.239 57.2386 130 60 130C62.7614 130 65 132.239 65 135Z" fill="#0891b2"/>
</svg>
